# xmcd
# 
# Track frame offsets:
#     150
#     22182
#     39715
#     62365
#     80600
#     102127
#     124777
#     148257
#     180057
#     198980
#     220660
# 
# Disc length: 3350
# 
# Revision: 1
# Processed by: cddbd v1.5.2PL0 Copyright (c) Steve Scherf et al.
# Submitted via: fre:ac v1.0.17
# 
DISCID=930d140b
DTITLE=仲井戸麗市 - DADA
DYEAR=1992
DGENRE=Blues
TTITLE0=ムーンライト・ドライブ
TTITLE1=BABY LOVE
TTITLE2=向日葵 10.9
TTITLE3=HUSTLE
TTITLE4=さまざまな自由
TTITLE5=はぐれた遠い子供達へ
TTITLE6=ランタン
TTITLE7=新宿を語る 冬
TTITLE8=ラジオ
TTITLE9=特別な夏
TTITLE10=DREAMS TO REMEMBER
EXTD=YEAR: 1992
EXTT0=
EXTT1=
EXTT2=
EXTT3=
EXTT4=
EXTT5=
EXTT6=
EXTT7=
EXTT8=
EXTT9=
EXTT10=
PLAYORDER=
